<mxfile host="app.diagrams.net" modified="2023-12-13T14:21:42.090Z" agent="Mozilla/5.0 (Macintosh; Intel Mac OS X 10_15_7) AppleWebKit/537.36 (KHTML, like Gecko) Chrome/120.0.0.0 Safari/537.36" etag="h3G238xV_3WI18okiF-I" version="22.1.8" type="github">
  <diagram id="R2lEEEUBdFMjLlhIrx00" name="Page-1">
    <mxGraphModel dx="1170" dy="925" grid="1" gridSize="10" guides="1" tooltips="1" connect="1" arrows="1" fold="1" page="1" pageScale="1" pageWidth="850" pageHeight="1100" math="0" shadow="0" extFonts="Permanent Marker^https://fonts.googleapis.com/css?family=Permanent+Marker">
      <root>
        <mxCell id="0" />
        <mxCell id="1" parent="0" />
        <mxCell id="AkyEBe8GT_1xiuxSV3QQ-4" value="" style="edgeStyle=orthogonalEdgeStyle;rounded=0;orthogonalLoop=1;jettySize=auto;html=1;entryX=0;entryY=0.5;entryDx=0;entryDy=0;" edge="1" parent="1" source="AkyEBe8GT_1xiuxSV3QQ-1" target="AkyEBe8GT_1xiuxSV3QQ-2">
          <mxGeometry relative="1" as="geometry">
            <mxPoint x="350" y="260" as="targetPoint" />
          </mxGeometry>
        </mxCell>
        <mxCell id="AkyEBe8GT_1xiuxSV3QQ-1" value="Customer running source DB (12.15)" style="rounded=0;whiteSpace=wrap;html=1;" vertex="1" parent="1">
          <mxGeometry x="130" y="230" width="140" height="60" as="geometry" />
        </mxCell>
        <mxCell id="AkyEBe8GT_1xiuxSV3QQ-2" value="&lt;div&gt;restore a new 15.3 target DB&lt;/div&gt;&lt;div&gt;&lt;br&gt;&lt;/div&gt;" style="rounded=0;whiteSpace=wrap;html=1;" vertex="1" parent="1">
          <mxGeometry x="500" y="230" width="120" height="60" as="geometry" />
        </mxCell>
        <mxCell id="AkyEBe8GT_1xiuxSV3QQ-7" value="&amp;nbsp; This DB has something added by customer" style="text;html=1;align=center;verticalAlign=middle;resizable=0;points=[];autosize=1;strokeColor=none;fillColor=none;" vertex="1" parent="1">
          <mxGeometry x="50" y="190" width="260" height="30" as="geometry" />
        </mxCell>
        <mxCell id="AkyEBe8GT_1xiuxSV3QQ-8" value="restore failed with error in loadable_libraries.txt file.Â the file had been removed by Postgres system as the restore have failed and stopped&#xa;" style="text;whiteSpace=wrap;" vertex="1" parent="1">
          <mxGeometry x="460" y="170" width="300" height="40" as="geometry" />
        </mxCell>
        <mxCell id="AkyEBe8GT_1xiuxSV3QQ-12" value="Possible solution A:&amp;nbsp; update or remove these added extra libraries/extensions.&lt;br&gt;&amp;nbsp; &amp;nbsp;" style="text;html=1;align=center;verticalAlign=middle;resizable=0;points=[];autosize=1;strokeColor=none;fillColor=none;" vertex="1" parent="1">
          <mxGeometry x="70" y="430" width="440" height="40" as="geometry" />
        </mxCell>
        <mxCell id="AkyEBe8GT_1xiuxSV3QQ-13" value="" style="shape=image;html=1;verticalAlign=top;verticalLabelPosition=bottom;labelBackgroundColor=#ffffff;imageAspect=0;aspect=fixed;image=https://cdn0.iconfinder.com/data/icons/df_On_Stage_Icon_Set/128/Symbol_-_Add.png" vertex="1" parent="1">
          <mxGeometry x="120" y="270" width="58" height="58" as="geometry" />
        </mxCell>
        <mxCell id="AkyEBe8GT_1xiuxSV3QQ-15" value="" style="curved=1;endArrow=classic;html=1;rounded=0;edgeStyle=orthogonalEdgeStyle;entryX=0.079;entryY=-0.167;entryDx=0;entryDy=0;entryPerimeter=0;" edge="1" parent="1">
          <mxGeometry width="50" height="50" relative="1" as="geometry">
            <mxPoint x="189" y="435.01" as="sourcePoint" />
            <mxPoint x="143.91000000000008" y="310" as="targetPoint" />
            <Array as="points">
              <mxPoint x="189" y="375.01" />
              <mxPoint x="109" y="375.01" />
              <mxPoint x="109" y="325.01" />
              <mxPoint x="144" y="325.01" />
            </Array>
          </mxGeometry>
        </mxCell>
        <mxCell id="AkyEBe8GT_1xiuxSV3QQ-16" value="&lt;span style=&quot;color: rgb(0, 0, 0); font-family: Helvetica; font-size: 12px; font-style: normal; font-variant-ligatures: normal; font-variant-caps: normal; font-weight: 400; letter-spacing: normal; orphans: 2; text-align: center; text-indent: 0px; text-transform: none; widows: 2; word-spacing: 0px; -webkit-text-stroke-width: 0px; background-color: rgb(251, 251, 251); text-decoration-thickness: initial; text-decoration-style: initial; text-decoration-color: initial; float: none; display: inline !important;&quot;&gt;possible fact - Customer added some extensions here&amp;nbsp;&lt;/span&gt;" style="text;whiteSpace=wrap;html=1;" vertex="1" parent="1">
          <mxGeometry x="30" y="220" width="70" height="40" as="geometry" />
        </mxCell>
        <mxCell id="AkyEBe8GT_1xiuxSV3QQ-17" value="" style="edgeStyle=none;orthogonalLoop=1;jettySize=auto;html=1;rounded=0;exitX=0.75;exitY=1;exitDx=0;exitDy=0;" edge="1" parent="1" source="AkyEBe8GT_1xiuxSV3QQ-16" target="AkyEBe8GT_1xiuxSV3QQ-13">
          <mxGeometry width="100" relative="1" as="geometry">
            <mxPoint x="100" y="270" as="sourcePoint" />
            <mxPoint x="90" y="320" as="targetPoint" />
            <Array as="points" />
          </mxGeometry>
        </mxCell>
      </root>
    </mxGraphModel>
  </diagram>
</mxfile>
